# xmcd
#
# Track frame offsets:
#	150
#	20864
#	42323
#	60436
#	77689
#	95393
#	113200
#	130106
#	149991
#	169548
#	190756
#
# Disc length: 2728 seconds
#
# Revision: 2
# Processed by: cddbd v1.5.1PL0 Copyright (c) Steve Scherf et al.
# Submitted via: dBpowerAMP V4.0
#
DISCID=950aa60b
DTITLE=Gildor Roy - Vacaciones
DYEAR=2002
DGENRE=Country
TTITLE0=Le touriste
TTITLE1=Valando
TTITLE2=C'est dommage
TTITLE3=Salut ma sirène
TTITLE4=Desperado
TTITLE5=Flor de primavera
TTITLE6=Guantanamera
TTITLE7=Si tu savais
TTITLE8=La cantina
TTITLE9=J'aime le monde
TTITLE10=Même si
EXTD=Album - Vacaciones\nArtist - Gildor Roy
EXTT0=
EXTT1=
EXTT2=
EXTT3=
EXTT4=
EXTT5=
EXTT6=
EXTT7=
EXTT8=
EXTT9=
EXTT10=
PLAYORDER=
